<?xml version="1.0" encoding="utf-8"?>
<!-- Generator: Adobe Illustrator 19.1.0, SVG Export Plug-In . SVG Version: 6.00 Build 0)  -->
<!DOCTYPE svg PUBLIC "-//W3C//DTD SVG 1.1//EN" "http://www.w3.org/Graphics/SVG/1.1/DTD/svg11.dtd">
<svg version="1.1" id="Layer_1" xmlns="http://www.w3.org/2000/svg" xmlns:xlink="http://www.w3.org/1999/xlink" x="0px" y="0px"
	 viewBox="0 0 150 150" style="enable-background:new 0 0 150 150;" xml:space="preserve">
<style type="text/css">
	.st0{fill:#554487;}
	.st1{fill:#E14329;}
	.st2{fill:#FB6D26;}
	.st3{fill:#FBA226;}
</style>
<rect x="0" class="st0" width="150" height="150"/>
<g>
	<path class="st1" d="M75.4,126.9c-0.5,0.4-0.8,0.1-1.1-0.3c-1.6-2-2.4-4.5-3.2-6.9c-4.9-14.1-9.3-28.4-14-42.5
		c-1.5-4.6-3.1-9.1-4.4-13.8c-0.4-1.2-1-2.6,0.6-3.5c14.6,0,29.2,0,43.7,0c1.2,0.7,0.9,1.8,0.6,2.8c-0.5,1.7-0.9,3.5-1.5,5.2
		C90.7,84.4,85.4,101,80,117.6C78.9,120.9,77.7,124.2,75.4,126.9z"/>
	<path class="st2" d="M75.4,126.9c7.2-22.3,14.4-44.6,21.6-67l0,0c1.3-1.2,2.9-1.3,4.5-1.4c7.3,0,14.7-0.1,22,0
		c1.5,0,3.1-0.1,4.1,1.3c0.1,0.2,0.3,0.3,0.4,0.5c-0.5,3.3-2.9,5.4-4.8,7.8C110.1,85,97.1,101.8,84,118.5c-2.1,2.7-4.8,4.8-7,7.4
		C76.5,126.2,75.9,126.6,75.4,126.9z"/>
	<path class="st2" d="M53.3,59.9c3.8,12,7.8,24.1,11.5,36.2c3.1,10.2,7.2,20.1,9.5,30.5c-0.3-0.2-0.7-0.5-1-0.7
		c-11.6-11.6-20.6-25.3-30.9-38c-6-7.4-11.8-15-17.7-22.5c-1.2-1.5-2.3-3-2.5-4.9c0.1-0.2,0.3-0.4,0.4-0.5c1-1.1,2.3-1.2,3.6-1.3
		c7.6-0.1,15.3-0.1,22.9,0C50.7,58.6,52,59.1,53.3,59.9L53.3,59.9z"/>
	<path class="st3" d="M77,125.9c4.3-7.3,10.1-13.6,15.3-20.3c11.1-14.5,22.5-28.9,33.8-43.3c0.6-0.7,1.3-1.3,2-2
		c2.1,6.4,4.2,12.7,6.3,19.1c0.8,2.4,0.5,4.5-1.7,6.1C114.1,99.1,95.6,112.5,77,125.9z"/>
	<path class="st3" d="M22.2,60.4c6.6,7,12,15,18,22.5c10.8,13.7,21.5,27.5,32.2,41.3c0.4,0.5,0.6,1.1,0.9,1.7
		c-17.1-12.3-34.1-24.7-51.2-37c-1.4-1-2.7-2-4.1-3c-2.3-1.5-2.9-3.6-2.1-6.2C17.9,73.3,20.1,66.9,22.2,60.4z"/>
	<path class="st1" d="M53.3,59.9c-10.2,0-20.5,0-30.7-0.1c4.3-13.5,8.6-26.9,12.9-40.4c0.3-1.1,1.1-1.8,2.2-1.9
		c2.2,0.3,2.4,2.1,2.9,3.7C44.9,34.1,49.1,47,53.3,59.9z"/>
	<path class="st1" d="M127.7,59.9c-10.2,0-20.4,0-30.6,0c4.7-14.2,9.3-28.5,13.9-42.3c2.4-0.1,3.3,0.3,3.7,1.6
		C119,32.8,123.3,46.4,127.7,59.9z"/>
</g>
</svg>
