<?xml version="1.0" encoding="utf-8"?>
<!-- Generator: Adobe Illustrator 19.1.0, SVG Export Plug-In . SVG Version: 6.00 Build 0)  -->
<!DOCTYPE svg PUBLIC "-//W3C//DTD SVG 1.1//EN" "http://www.w3.org/Graphics/SVG/1.1/DTD/svg11.dtd">
<svg version="1.1" xmlns="http://www.w3.org/2000/svg" xmlns:xlink="http://www.w3.org/1999/xlink" x="0px" y="0px"
	 viewBox="0 0 24 24" style="enable-background:new 0 0 24 24;" xml:space="preserve">
<style type="text/css">
	.st0{fill:#E14329;}
	.st1{fill:#FB6D26;}
	.st2{fill:#FBA226;}
</style>
<g id="Layer_2">
</g>
<g id="Layer_1">
	<g>
		<path class="st0" d="M12.1,22.7c-0.1,0.1-0.2,0-0.2-0.1c-0.3-0.4-0.5-0.9-0.6-1.4c-1-2.8-1.8-5.6-2.7-8.4
			c-0.3-0.9-0.6-1.8-0.9-2.7C7.6,9.9,7.4,9.7,7.7,9.5c2.9,0,5.7,0,8.6,0c0.2,0.1,0.2,0.3,0.1,0.5c-0.1,0.3-0.2,0.7-0.3,1
			c-1.1,3.3-2.1,6.5-3.2,9.8C12.8,21.5,12.6,22.1,12.1,22.7z"/>
		<path class="st1" d="M12.1,22.7c1.4-4.4,2.8-8.8,4.3-13.2l0,0c0.2-0.2,0.6-0.3,0.9-0.3c1.4,0,2.9,0,4.3,0c0.3,0,0.6,0,0.8,0.3
			c0,0,0.1,0.1,0.1,0.1c-0.1,0.6-0.6,1.1-1,1.5c-2.6,3.3-5.1,6.6-7.7,9.9c-0.4,0.5-0.9,0.9-1.4,1.5C12.3,22.5,12.2,22.6,12.1,22.7z"
			/>
		<path class="st1" d="M7.7,9.5c0.8,2.4,1.5,4.7,2.3,7.1c0.6,2,1.4,4,1.9,6c-0.1,0-0.1-0.1-0.2-0.1c-2.3-2.3-4.1-5-6.1-7.5
			c-1.2-1.5-2.3-3-3.5-4.4c-0.2-0.3-0.5-0.6-0.5-1c0,0,0.1-0.1,0.1-0.1c0.2-0.2,0.4-0.2,0.7-0.2c1.5,0,3,0,4.5,0
			C7.2,9.2,7.5,9.3,7.7,9.5L7.7,9.5z"/>
		<path class="st2" d="M12.4,22.5c0.9-1.4,2-2.7,3-4c2.2-2.9,4.4-5.7,6.7-8.5c0.1-0.1,0.3-0.3,0.4-0.4c0.4,1.3,0.8,2.5,1.2,3.8
			c0.2,0.5,0.1,0.9-0.3,1.2C19.7,17.2,16.1,19.8,12.4,22.5z"/>
		<path class="st2" d="M1.6,9.6C2.9,11,4,12.5,5.2,14c2.1,2.7,4.2,5.4,6.3,8.1c0.1,0.1,0.1,0.2,0.2,0.3C8.3,20,5,17.6,1.6,15.2
			c-0.3-0.2-0.5-0.4-0.8-0.6c-0.4-0.3-0.6-0.7-0.4-1.2C0.8,12.1,1.2,10.9,1.6,9.6z"/>
		<path class="st0" d="M7.8,9.5c-2,0-4,0-6,0c0.8-2.7,1.7-5.3,2.5-8c0.1-0.2,0.2-0.3,0.4-0.4c0.4,0.1,0.5,0.4,0.6,0.7
			C6.1,4.4,6.9,7,7.8,9.5z"/>
		<path class="st0" d="M22.4,9.5c-2,0-4,0-6,0c0.9-2.8,1.8-5.6,2.7-8.3c0.5,0,0.7,0.1,0.7,0.3C20.7,4.1,21.5,6.8,22.4,9.5z"/>
	</g>
</g>
</svg>
