<?xml version="1.0" encoding="utf-8"?>
<!-- Generator: Adobe Illustrator 19.1.0, SVG Export Plug-In . SVG Version: 6.00 Build 0)  -->
<!DOCTYPE svg PUBLIC "-//W3C//DTD SVG 1.1//EN" "http://www.w3.org/Graphics/SVG/1.1/DTD/svg11.dtd">
<svg version="1.1" id="Layer_1" xmlns="http://www.w3.org/2000/svg" xmlns:xlink="http://www.w3.org/1999/xlink" x="0px" y="0px"
	 viewBox="0 0 128 128" style="enable-background:new 0 0 128 128;" xml:space="preserve">
<style type="text/css">
	.st0{opacity:0.6;fill:#D1D1D1;}
	.st1{fill:#554487;}
	.st2{fill:#E14329;}
	.st3{fill:#FB6D26;}
	.st4{fill:#FBA226;}
</style>
<path class="st0" d="M120.7,128H10.4c-4,0-7.3-3.2-7.3-7.3V10.4c0-4,3.2-7.3,7.3-7.3h110.3c4,0,7.3,3.2,7.3,7.3v110.3
	C128,124.8,124.8,128,120.7,128z"/>
<path class="st1" d="M119.3,124H4.7c-2.6,0-4.8-2.1-4.8-4.8V4.8C0,2.1,2.1,0,4.7,0h114.5c2.6,0,4.8,2.1,4.8,4.8v114.5
	C124,121.9,121.9,124,119.3,124z"/>
<g>
	<path class="st2" d="M62.5,105.3c-0.4,0.3-0.7,0.1-0.9-0.2c-1.3-1.7-2-3.7-2.7-5.7C54.9,87.6,51.3,75.8,47.4,64
		c-1.2-3.8-2.6-7.6-3.7-11.4c-0.3-1-0.8-2.1,0.5-2.9c12.1,0,24.2,0,36.3,0c1,0.6,0.7,1.5,0.5,2.3c-0.4,1.4-0.7,2.9-1.2,4.3
		C75.2,70,70.8,83.8,66.3,97.5C65.4,100.3,64.5,103,62.5,105.3z"/>
	<path class="st3" d="M62.5,105.3c6-18.5,12-37,18-55.5l0,0c1.1-1,2.4-1.1,3.7-1.1c6.1,0,12.2,0,18.3,0c1.2,0,2.5-0.1,3.4,1.1
		c0.1,0.1,0.2,0.3,0.3,0.4c-0.4,2.7-2.4,4.5-4,6.5C91.3,70.5,80.5,84.4,69.7,98.3c-1.7,2.2-4,4-5.8,6.1
		C63.4,104.7,63,105,62.5,105.3z"/>
	<path class="st3" d="M44.2,49.7c3.2,10,6.5,20,9.5,30c2.6,8.5,5.9,16.7,7.9,25.3c-0.3-0.2-0.6-0.4-0.9-0.6
		c-9.6-9.6-17.1-21-25.6-31.5c-5-6.2-9.8-12.5-14.7-18.7c-1-1.2-1.9-2.5-2.1-4.1c0.1-0.1,0.2-0.3,0.3-0.4c0.8-0.9,1.9-1,3-1
		c6.3-0.1,12.7,0,19,0C42,48.6,43.2,49,44.2,49.7L44.2,49.7z"/>
	<path class="st4" d="M63.9,104.4c3.6-6.1,8.4-11.2,12.7-16.8c9.2-12.1,18.7-23.9,28-35.9c0.5-0.6,1.1-1.1,1.6-1.6
		c1.7,5.3,3.5,10.6,5.2,15.9c0.6,2,0.4,3.7-1.4,5C94.7,82.2,79.3,93.3,63.9,104.4z"/>
	<path class="st4" d="M18.4,50.1c5.5,5.8,10,12.4,14.9,18.7c9,11.4,17.8,22.8,26.7,34.2c0.3,0.4,0.5,0.9,0.7,1.4
		C46.6,94.2,32.5,84,18.3,73.8c-1.1-0.8-2.3-1.7-3.4-2.5c-1.9-1.3-2.4-3-1.8-5.1C14.9,60.8,16.7,55.5,18.4,50.1z"/>
	<path class="st2" d="M44.2,49.7c-8.5,0-17,0-25.5-0.1c3.6-11.2,7.1-22.4,10.7-33.5c0.3-0.9,0.9-1.5,1.9-1.6c1.8,0.2,2,1.8,2.4,3.1
		C37.2,28.3,40.7,39,44.2,49.7z"/>
	<path class="st2" d="M105.9,49.7c-8.5,0-16.9,0-25.4,0c3.9-11.8,7.8-23.6,11.5-35.1c2-0.1,2.8,0.3,3.1,1.3
		C98.7,27.2,102.3,38.4,105.9,49.7z"/>
</g>
</svg>
